<?xml version="1.0" encoding="utf-8"?>
<!-- Generator: Adobe Illustrator 22.0.1, SVG Export Plug-In . SVG Version: 6.00 Build 0)  -->
<svg version="1.1" id="Laag_1" xmlns="http://www.w3.org/2000/svg" xmlns:xlink="http://www.w3.org/1999/xlink" x="0px" y="0px"
	 viewBox="0 0 841.9 595.3" style="enable-background:new 0 0 841.9 595.3;" xml:space="preserve">
<style type="text/css">
	.st0{fill:#CFCB76;}
	.st1{fill:#FFFFFF;}
</style>
<g>
	<g>
		<path class="st0" d="M226.6,249c0-6.1-2.2-11.4-5.4-14.3c-3.2,2.9-5.4,8.2-5.4,14.3c0,6.1,2.2,11.4,5.4,14.3
			C224.4,260.5,226.6,255.1,226.6,249z"/>
		<path class="st0" d="M250.2,296.3c6.1-6.2,10.6-14.5,10.2-25.6l-5.6,0.2c0.4,12-6,21.8-18.9,29.2c-0.3,0.2-0.6,0.3-0.9,0.5
			c-0.1,0.1-0.3,0.2-0.4,0.2l0,0c-3.3,2-6.3,4.7-8.8,8c-0.6,0.8-1.2,1.7-1.8,2.6l0-19.2v-0.8c0-19.6,17-29.3,19.3-29.9l-1.4-5.5
			c-4,1-15.6,8.2-20.8,21.4c-5.5-12.8-17-19.7-21-20.8l-1.4,5.5c2.3,0.6,19.7,10.4,19.7,30.1v19.2c-0.5-0.9-1.1-1.7-1.8-2.6
			c-2.5-3.3-5.5-5.9-8.8-8l0,0c-0.1-0.1-0.3-0.2-0.4-0.2c-0.3-0.2-0.6-0.4-0.9-0.5c-12.9-7.4-19.3-17.2-18.9-29.2l-5.6-0.2
			c-0.4,11.1,4.2,19.4,10.2,25.6c-11.3-0.4-21.8,4.3-27.4,9.4l3.8,4.2c4.8-4.4,14.7-8.7,24.8-7.8c3.6,0.3,6.9,1.3,9.9,2.8
			c0.4,0.3,0.9,0.5,1.3,0.7c2.8,1.7,5.3,3.9,7.4,6.7c5.4,7,6.7,15.6,3.8,24.2c-3.1,9-10.4,16.7-17.7,18.7l1.5,5.4
			c9.2-2.5,17.8-11.4,21.6-22.2c3.7,10.8,12.4,19.7,21.6,22.2l1.5-5.4c-7.4-2-14.7-9.7-17.7-18.7c-2.9-8.6-1.6-17.2,3.8-24.2
			c2.1-2.8,4.6-5,7.4-6.7c0.4-0.2,0.9-0.5,1.3-0.7c3-1.6,6.3-2.5,9.9-2.8c10.2-0.9,20,3.4,24.9,7.8l3.8-4.2
			C272,300.5,261.5,295.8,250.2,296.3z"/>
		<path class="st0" d="M271.9,281.6c-4.7,2.3-7.9,5.9-8.9,9.5c3.4,1.4,8.3,1.1,12.9-1.2c4.7-2.3,7.9-5.9,8.9-9.5
			C281.4,279,276.5,279.3,271.9,281.6z"/>
		<path class="st0" d="M179.5,291.1c-1-3.5-4.2-7.2-8.9-9.5c-4.7-2.3-9.6-2.6-12.9-1.2c1,3.5,4.2,7.2,8.9,9.5
			C171.2,292.2,176.1,292.5,179.5,291.1z"/>
	</g>
	<g>
		<path class="st1" d="M333.4,278.8c4,0,7.3,1.2,9.8,3.5c2.5,2.4,3.7,5.7,3.7,10.1s-1.2,7.7-3.7,10c-2.5,2.3-5.8,3.4-9.8,3.4H325
			v-23.6l-3.1-0.9v-2.4H333.4z M333.4,301.7c5.4,0,8.5-3.1,8.5-9.4c0-6.3-3.2-9.5-8.5-9.5h-3.4v18.9H333.4z"/>
		<path class="st1" d="M363.9,301.7h12.6v4h-17.6v-23.6l-3.1-0.9v-2.4h20v4h-12v7.5H374v4h-10.2V301.7z"/>
		<path class="st1" d="M417.4,306.3c-4,0-7.2-1.3-9.7-3.9c-2.5-2.6-3.7-6-3.7-10.2c0-4.2,1.2-7.6,3.7-10.2s5.7-3.9,9.7-3.9
			s7.2,1.3,9.7,3.9s3.7,6,3.7,10.2c0,4.2-1.2,7.6-3.7,10.2C424.6,305,421.4,306.3,417.4,306.3z M417.4,302.2c2.5,0,4.6-0.9,6.1-2.6
			c1.5-1.8,2.3-4.2,2.3-7.3c0-3.1-0.8-5.5-2.3-7.3c-1.5-1.8-3.6-2.6-6.1-2.6s-4.5,0.9-6.1,2.6c-1.5,1.8-2.3,4.2-2.3,7.3
			c0,3.1,0.8,5.5,2.3,7.3C412.9,301.3,414.9,302.2,417.4,302.2z"/>
		<path class="st1" d="M447.5,301.7h12.4v4h-17.3v-27h4.9V301.7z"/>
		<path class="st1" d="M471.1,278.8h4.9v27h-4.9V278.8z"/>
		<path class="st1" d="M496.3,278.8v25.8c0,1.8-0.1,3-0.5,4.7c-0.4,1.6-1.1,2.7-2.4,3.7c-1.8,1.5-4.8,1.9-9.6,0.8l0.9-3.8
			c1.8,0.5,3.3,0.5,4.2,0.4c0.9-0.2,1.6-1.1,1.9-1.7c0.3-0.6,0.5-2.2,0.5-3v-1.8v-0.2v-21.5l-3.1-0.9v-2.4H496.3z"/>
		<path class="st1" d="M527,282.8h-11.9v8.5h9.6v4h-9.6v10.5h-4.9v-23.6l-3.1-0.9v-2.4h20V282.8z"/>
		<path class="st1" d="M558.7,298c0,2.2-0.8,4-2.3,5.5c-1.5,1.5-3.7,2.2-6.4,2.2h-10.7v-23.6l-3.1-0.9v-2.4h13.1
			c5.4,0,8.2,2.7,8.2,6.8c0,2.4-1,4.8-3.4,6C556.9,292.3,558.7,294.7,558.7,298z M544.3,282.8v7.5h4.1c2.9,0,4.3-1.2,4.4-3.7
			c0-2.6-1.3-3.7-4.4-3.7H544.3z M548.9,301.7c3.4,0,4.9-1.2,4.9-4c0-2.6-1.5-3.9-4.5-3.9h-5.1v7.9H548.9z"/>
		<path class="st1" d="M582.5,306.3c-4,0-7.2-1.3-9.7-3.9c-2.5-2.6-3.7-6-3.7-10.2c0-4.2,1.2-7.6,3.7-10.2s5.7-3.9,9.7-3.9
			c4,0,7.2,1.3,9.7,3.9s3.7,6,3.7,10.2c0,4.2-1.2,7.6-3.7,10.2C589.6,305,586.4,306.3,582.5,306.3z M582.5,302.2
			c2.5,0,4.6-0.9,6.1-2.6c1.5-1.8,2.3-4.2,2.3-7.3c0-3.1-0.8-5.5-2.3-7.3c-1.5-1.8-3.6-2.6-6.1-2.6s-4.5,0.9-6.1,2.6
			c-1.5,1.8-2.3,4.2-2.3,7.3c0,3.1,0.8,5.5,2.3,7.3C577.9,301.3,579.9,302.2,582.5,302.2z"/>
		<path class="st1" d="M619.7,306.3c-4,0-7.2-1.3-9.7-3.9c-2.5-2.6-3.7-6-3.7-10.2c0-4.2,1.2-7.6,3.7-10.2c2.5-2.6,5.7-3.9,9.7-3.9
			c4,0,7.2,1.3,9.7,3.9s3.7,6,3.7,10.2c0,4.2-1.2,7.6-3.7,10.2C626.9,305,623.7,306.3,619.7,306.3z M619.7,302.2
			c2.5,0,4.6-0.9,6.1-2.6c1.5-1.8,2.3-4.2,2.3-7.3c0-3.1-0.8-5.5-2.3-7.3c-1.5-1.8-3.6-2.6-6.1-2.6s-4.5,0.9-6.1,2.6
			c-1.5,1.8-2.3,4.2-2.3,7.3c0,3.1,0.8,5.5,2.3,7.3C615.2,301.3,617.2,302.2,619.7,302.2z"/>
		<path class="st1" d="M642.1,278.8h7.8l8.7,13.4l0.3,0.9l0.2-0.9l8.7-13.4h4.7v27h-4.9V286l-0.4,1.2l-7.1,10.5h-2.5l-7-10.5
			l-0.3-1.1v19.6h-4.9v-23.6l-3.1-0.9V278.8z"/>
	</g>
	<g>
		<path class="st1" d="M324.4,325.6h1.5l2.4,9.7l2.8-9.7h1l2.8,9.7l2.5-9.7h1.4l-3.1,12h-1.3l-2.7-9.5l-2.8,9.5h-1.3L324.4,325.6z"
			/>
		<path class="st1" d="M344.6,331.7v-0.1c0-3.4,2.4-6.1,5.9-6.1c3.5,0,5.9,2.7,5.9,6.1v0.1c0,3.4-2.3,6.1-5.8,6.1
			C347,337.7,344.6,335,344.6,331.7z M354.8,331.6v-0.1c0-2.7-1.6-4.9-4.3-4.9c-2.8,0-4.4,2-4.4,4.9v0.1c0,2.9,1.9,4.9,4.4,4.9
			C353.2,336.5,354.8,334.5,354.8,331.6z"/>
		<path class="st1" d="M362.9,331.7v-0.1c0-3.4,2.4-6.1,5.9-6.1c3.5,0,5.9,2.7,5.9,6.1v0.1c0,3.4-2.3,6.1-5.8,6.1
			C365.3,337.7,362.9,335,362.9,331.7z M373.1,331.6v-0.1c0-2.7-1.6-4.9-4.3-4.9c-2.8,0-4.4,2-4.4,4.9v0.1c0,2.9,1.9,4.9,4.4,4.9
			C371.5,336.5,373.1,334.5,373.1,331.6z"/>
		<path class="st1" d="M381.7,325.6h1.9l5.8,9.9v-9.9h1.4v12h-1.7l-6.1-10.3v10.3h-1.4V325.6z"/>
		<path class="st1" d="M397.6,337.4l6.8-10.6h-6.2v-1.2h8.2v0.2l-6.6,10.5h6.5v1.2h-8.7V337.4z"/>
		<path class="st1" d="M412.2,331.7v-0.1c0-3.4,2.4-6.1,5.9-6.1c3.5,0,5.9,2.7,5.9,6.1v0.1c0,3.4-2.3,6.1-5.8,6.1
			C414.6,337.7,412.2,335,412.2,331.7z M422.4,331.6v-0.1c0-2.7-1.6-4.9-4.3-4.9c-2.8,0-4.4,2-4.4,4.9v0.1c0,2.9,1.9,4.9,4.4,4.9
			C420.8,336.5,422.4,334.5,422.4,331.6z"/>
		<path class="st1" d="M431.1,325.6h3.6c2.3,0,4.2,0.9,4.2,3.3v0.1c0,2-1.3,3-3,3.3l3.7,5.3h-1.6l-3.6-5.2h-1.8v5.2h-1.5V325.6z
			 M434.8,331.2c1.7,0,2.6-0.7,2.6-2.2v-0.1c0-1.6-1-2.2-2.6-2.2h-2.2v4.4H434.8z"/>
		<path class="st1" d="M445.6,331.7v-0.1c0-3.5,2.4-6.1,5.8-6.1c2.4,0,4.5,1.1,4.9,3.8h-1.5c-0.3-1.9-1.6-2.6-3.4-2.6
			c-2.7,0-4.3,2-4.3,4.9v0.1c0,3,1.5,4.9,4.3,4.9c2.6,0,3.7-1.7,3.8-3.8h-3.5v-1.2h4.9v0.9c0,3.5-2.1,5.3-5.2,5.3
			C447.7,337.7,445.6,335.2,445.6,331.7z"/>
		<path class="st1" d="M463.1,331.7v-0.1c0-3.6,2.4-6.1,5.6-6.1c2.5,0,4.6,1.3,4.9,3.9h-1.4c-0.3-1.8-1.4-2.8-3.4-2.8
			c-2.5,0-4.1,1.9-4.1,4.9v0.1c0,3.1,1.5,4.9,4.1,4.9c2,0,3.3-1,3.6-2.9h1.4c-0.4,2.8-2.3,4.1-5,4.1
			C465.3,337.7,463.1,335.4,463.1,331.7z"/>
		<path class="st1" d="M480.7,325.6h7v1.2h-5.5v4.1h4.5v1.2h-4.5v4.3h5.8v1.2h-7.3V325.6z"/>
		<path class="st1" d="M494.8,325.6h1.9l5.8,9.9v-9.9h1.4v12h-1.7l-6.1-10.3v10.3h-1.4V325.6z"/>
		<path class="st1" d="M514.2,326.8h-3.5v-1.2h8.4v1.2h-3.5v10.8h-1.5V326.8z"/>
		<path class="st1" d="M525.8,325.6h3.6c2.3,0,4.2,0.9,4.2,3.3v0.1c0,2-1.3,3-3,3.3l3.7,5.3h-1.6l-3.6-5.2h-1.8v5.2h-1.5V325.6z
			 M529.5,331.2c1.7,0,2.6-0.7,2.6-2.2v-0.1c0-1.6-1-2.2-2.6-2.2h-2.2v4.4H529.5z"/>
		<path class="st1" d="M540.9,333.2v-7.6h1.5v7.4c0,2.5,0.9,3.5,2.9,3.5c1.9,0,3.1-0.8,3.1-3.7v-7.2h1.5v7.4c0,2.9-1.5,4.7-4.5,4.7
			C542.4,337.7,540.9,336.1,540.9,333.2z"/>
		<path class="st1" d="M557.3,325.6h2l3.7,9.3l3.6-9.3h2v12h-1.5v-10.1l-4,10.1h-0.5l-4.1-10.1v10.1h-1.3V325.6z"/>
	</g>
</g>
</svg>
