<?xml version="1.0" encoding="utf-8"?>
<!-- Generator: Adobe Illustrator 22.0.1, SVG Export Plug-In . SVG Version: 6.00 Build 0)  -->
<svg version="1.1" id="Laag_1" xmlns="http://www.w3.org/2000/svg" xmlns:xlink="http://www.w3.org/1999/xlink" x="0px" y="0px"
	 viewBox="0 0 841.9 595.3" style="enable-background:new 0 0 841.9 595.3;" xml:space="preserve">
<style type="text/css">
	.st0{fill:#CFCB76;}
</style>
<g>
	<path class="st0" d="M427.1,242.5c0-7-2.5-13-6.2-16.3c-3.7,3.3-6.2,9.3-6.2,16.3c0,7,2.5,13,6.2,16.3
		C424.6,255.5,427.1,249.4,427.1,242.5z"/>
	<path class="st0" d="M453.9,296.2c6.9-7,12.1-16.5,11.7-29.1l-6.4,0.2c0.4,13.7-6.8,24.8-21.5,33.2c-0.3,0.2-0.7,0.4-1,0.6
		c-0.2,0.1-0.3,0.2-0.5,0.3l0,0c-3.8,2.3-7.2,5.3-10,9.1c-0.7,0.9-1.4,1.9-2,2.9l0-21.9v-1c0-22.3,19.3-33.3,21.9-34l-1.6-6.2
		c-4.5,1.2-17.7,9.3-23.7,24.4c-6.3-14.6-19.3-22.4-23.9-23.6l-1.6,6.2c2.7,0.7,22.5,11.8,22.5,34.2v21.9c-0.6-1-1.3-2-2-2.9
		c-2.9-3.7-6.3-6.8-10-9.1l0,0c-0.2-0.1-0.3-0.2-0.5-0.3c-0.3-0.2-0.7-0.4-1-0.6c-14.7-8.4-21.9-19.6-21.5-33.2l-6.4-0.2
		c-0.4,12.6,4.8,22.1,11.7,29.1c-12.8-0.5-24.8,4.9-31.2,10.7l4.3,4.7c5.5-5,16.7-9.9,28.3-8.9c4.1,0.4,7.9,1.5,11.3,3.2
		c0.5,0.3,1,0.6,1.5,0.8c3.2,1.9,6,4.4,8.5,7.6c6.1,7.9,7.6,17.7,4.3,27.5c-3.5,10.3-11.8,19-20.2,21.3l1.7,6.2
		c10.5-2.8,20.3-12.9,24.5-25.2c4.2,12.3,14.1,22.4,24.5,25.2l1.7-6.2c-8.4-2.3-16.7-11-20.2-21.3c-3.3-9.8-1.8-19.6,4.3-27.5
		c2.4-3.2,5.3-5.7,8.5-7.6c0.5-0.3,1-0.5,1.5-0.8c3.4-1.8,7.2-2.9,11.3-3.2c11.6-1,22.8,3.9,28.3,8.9l4.3-4.7
		C478.7,301.1,466.8,295.7,453.9,296.2z"/>
	<path class="st0" d="M478.6,279.6c-5.3,2.6-9,6.7-10.1,10.8c3.9,1.6,9.4,1.2,14.7-1.4c5.3-2.6,9-6.7,10.1-10.8
		C489.5,276.6,483.9,277,478.6,279.6z"/>
	<path class="st0" d="M373.4,290.3c-1.1-4-4.8-8.2-10.1-10.8c-5.3-2.6-10.9-3-14.7-1.4c1.1,4,4.8,8.2,10.1,10.8
		C364,291.6,369.6,291.9,373.4,290.3z"/>
</g>
</svg>
